<?xml version="1.0" standalone="no"?>
<!DOCTYPE svg PUBLIC "-//W3C//DTD SVG 20010904//EN"
 "http://www.w3.org/TR/2001/REC-SVG-20010904/DTD/svg10.dtd">
<svg version="1.0" xmlns="http://www.w3.org/2000/svg"
 width="1024.000000pt" height="1024.000000pt" viewBox="0 0 1024.000000 1024.000000"
 preserveAspectRatio="xMidYMid meet">

<g transform="translate(0.000000,1024.000000) scale(0.100000,-0.100000)"
fill="#000000" stroke="none">
<path d="M3510 7095 c-113 -16 -308 -58 -383 -84 -96 -33 -209 -95 -276 -151
-155 -131 -231 -286 -231 -475 0 -99 20 -181 66 -262 l34 -61 0 -1147 0 -1147
-40 -81 c-103 -211 -65 -393 119 -578 77 -77 98 -92 201 -142 118 -56 213 -86
355 -109 126 -20 3409 -14 3539 7 121 19 256 64 367 121 73 38 103 61 164 126
178 192 212 362 115 566 l-40 84 0 1155 0 1155 35 56 c51 83 69 165 62 287 -6
125 -32 202 -101 304 -60 88 -157 173 -255 225 -131 69 -350 129 -561 156
-133 16 -3047 12 -3170 -5z m3284 -253 c229 -56 362 -110 428 -173 60 -57 48
-117 -36 -177 -60 -44 -142 -76 -241 -97 -73 -15 -231 -17 -1831 -16 -1903 1
-1816 -2 -1972 56 -80 30 -161 94 -181 144 -10 24 -10 34 3 59 41 79 266 171
531 217 66 11 359 13 1645 11 l1565 -2 89 -22z m-3810 -591 c77 -46 169 -78
284 -98 89 -16 240 -17 1842 -16 1571 0 1754 2 1836 17 166 30 292 86 376 168
l48 47 0 -33 c0 -51 -54 -147 -115 -205 -64 -61 -165 -111 -285 -143 l-85 -23
-1765 0 c-1676 0 -1769 1 -1845 18 -222 51 -393 194 -420 350 l-6 38 40 -43
c21 -24 64 -58 95 -77z m4284 -1438 l-3 -1038 -27 -45 c-58 -98 -163 -168
-323 -212 l-80 -23 -1650 -3 c-1076 -2 -1683 1 -1746 7 -164 18 -300 70 -407
157 -47 38 -58 54 -65 88 -8 41 -23 2096 -15 2096 2 0 23 -9 45 -20 69 -33
185 -68 277 -85 78 -13 307 -15 1825 -15 1099 0 1762 4 1806 10 85 12 244 61
305 94 25 14 49 25 53 25 4 1 6 -466 5 -1036z m99 -1342 c-21 -178 -203 -315
-482 -363 -105 -18 -182 -18 -1815 -16 l-1705 3 -80 23 c-93 26 -197 67 -240
95 -97 64 -185 190 -185 264 l0 31 57 -57 c84 -82 210 -139 398 -178 72 -15
243 -17 1710 -20 1084 -3 1669 -1 1746 6 240 22 439 96 539 202 30 32 57 58
59 58 2 1 1 -21 -2 -48z"/>
<path d="M3646 5319 c-195 -46 -320 -251 -261 -428 45 -136 156 -210 357 -236
114 -15 158 -105 75 -155 -73 -45 -202 -18 -290 60 -19 16 -39 30 -45 30 -6 0
-29 -28 -52 -62 -24 -35 -58 -82 -77 -105 l-33 -42 45 -31 c105 -73 248 -119
363 -120 146 0 286 67 352 169 l35 55 3 -107 3 -107 134 0 135 0 0 165 0 165
83 0 c156 1 267 39 349 121 l47 47 -19 -47 c-10 -25 -55 -134 -99 -241 -45
-107 -81 -198 -81 -202 0 -5 65 -8 145 -8 l145 0 26 58 c14 31 35 85 47 120
l22 62 175 0 175 0 38 -91 c21 -50 40 -104 44 -120 l6 -29 223 0 224 0 0 277
c0 233 2 275 14 263 7 -8 62 -96 121 -195 60 -99 113 -186 120 -193 8 -9 23 9
65 83 59 102 185 304 201 320 5 5 9 -96 9 -273 l0 -282 135 0 135 0 0 540 0
540 -144 0 -143 0 -103 -182 c-57 -101 -113 -200 -124 -220 -12 -21 -24 -38
-27 -38 -3 0 -40 62 -82 138 -42 75 -98 173 -125 217 l-48 80 -137 3 -137 3
-1 -383 0 -383 -35 90 c-19 50 -87 222 -151 383 l-115 293 -136 -3 -136 -3
-71 -182 c-38 -100 -72 -184 -75 -186 -3 -3 -6 17 -7 44 -3 95 -74 205 -171
268 -82 53 -139 61 -408 61 l-241 0 -6 -212 c-4 -116 -7 -252 -7 -302 0 -87
-1 -90 -17 -66 -66 100 -148 143 -314 166 -89 12 -145 67 -121 118 31 68 118
77 218 21 37 -20 67 -35 69 -33 1 2 34 47 73 100 l71 97 -26 21 c-41 32 -142
77 -201 89 -62 13 -161 13 -216 0z m932 -253 c72 -38 99 -112 64 -175 -27 -51
-82 -75 -174 -79 l-78 -4 0 136 0 136 80 0 c50 0 91 -5 108 -14z m696 -249
c20 -51 36 -96 36 -100 0 -4 -38 -7 -84 -7 l-85 0 41 100 c23 55 45 100 49
100 4 0 23 -42 43 -93z"/>
</g>
</svg>
